# xmcd CD database file
#
# Track frame offsets:
#	150
#	41683
#	75683
#	120808
#	169633
#	213180
#
# Disc length: 3103 seconds
#
# Revision: 0
# Processed by: cddbd v1.5.2PL0 Copyright (c) Steve Scherf et al.
# Submitted via: CDex 1.51
#
DISCID=3e0c1d06
DTITLE=Kristian Brink Quartet - Kristian Brink Quartet
DYEAR=2008
DGENRE=Jazz
TTITLE0=RED COMEDY
TTITLE1=SENNA
TTITLE2=THE TREE
TTITLE3=CALLED THE SICK
TTITLE4=MARS
TTITLE5=COLAGA
EXTD=YEAR: 2008
EXTT0=
EXTT1=
EXTT2=
EXTT3=
EXTT4=
EXTT5=
PLAYORDER=
